<svg id="Capa_1" enable-background="new 0 0 512 512" height="512" viewBox="0 0 512 512" width="512" xmlns="http://www.w3.org/2000/svg"><g><g><path d="m224.93 256c0 17.132 13.938 31.07 31.07 31.07s31.07-13.938 31.07-31.07-13.938-31.07-31.07-31.07-31.07 13.938-31.07 31.07zm47.14 0c0 8.861-7.209 16.07-16.07 16.07s-16.07-7.209-16.07-16.07 7.209-16.07 16.07-16.07 16.07 7.209 16.07 16.07z"/><path d="m375.2 164.5h109.1c15.274 0 27.7-12.426 27.7-27.7v-109.1c0-15.274-12.426-27.7-27.7-27.7h-16.59c-4.142 0-7.5 3.358-7.5 7.5s3.358 7.5 7.5 7.5h16.59c7.003 0 12.7 5.697 12.7 12.7v51.058l-11.403-11.403c-6.886-6.886-16.041-10.678-25.779-10.678-2.772 0-5.493.318-8.131.916-5.105-14.316-18.66-24.257-34.616-24.257-20.289 0-36.794 16.506-36.794 36.794 0 13.58 7.562 25.746 18.877 32.111l-36.49 36.49c-.097-.631-.163-1.273-.163-1.931v-109.1c0-7.003 5.697-12.7 12.7-12.7h57.51c4.142 0 7.5-3.358 7.5-7.5s-3.358-7.5-7.5-7.5h-57.511c-15.274 0-27.7 12.426-27.7 27.7v47.052h-91.5c-4.142 0-7.5 3.358-7.5 7.5v60.215c-7.975.35-14.619 6.166-15.942 14.111l-4.386 26.317c-1.403.537-2.798 1.118-4.179 1.74l-21.718-15.513c-6.761-4.829-15.933-4.071-21.809 1.805l-9.539 9.539c-5.876 5.875-6.635 15.048-1.805 21.809l15.513 21.718c-.622 1.381-1.203 2.775-1.74 4.179l-26.316 4.386c-7.945 1.323-13.762 7.967-14.112 15.942h-52.715v-84h47.048c15.274 0 27.7-12.426 27.7-27.7v-109.1c0-15.274-12.426-27.7-27.7-27.7h-109.1c-15.274 0-27.7 12.426-27.7 27.7v53.92c0 4.142 3.358 7.5 7.5 7.5s7.5-3.358 7.5-7.5v-53.92c0-7.003 5.697-12.7 12.7-12.7h109.1c7.003 0 12.7 5.697 12.7 12.7v109.1c0 7.003-5.697 12.7-12.7 12.7h-109.1c-7.003 0-12.7-5.697-12.7-12.7v-20.18c0-4.142-3.358-7.5-7.5-7.5s-7.5 3.358-7.5 7.5v20.18c0 15.274 12.426 27.7 27.7 27.7h47.052v91.5c0 4.142 3.358 7.5 7.5 7.5h60.215c.35 7.975 6.166 14.619 14.111 15.942l26.317 4.386c.537 1.403 1.118 2.798 1.74 4.179l-15.513 21.718c-4.83 6.761-4.071 15.934 1.805 21.809l9.539 9.539c5.876 5.876 15.049 6.636 21.809 1.805l21.718-15.513c1.381.622 2.775 1.203 4.179 1.74l4.386 26.316c1.323 7.945 7.967 13.762 15.942 14.112v52.715h-83.996v-47.049c0-15.275-12.428-27.703-27.703-27.703h-109.098c-15.275 0-27.703 12.428-27.703 27.703v109.098c0 15.275 12.428 27.703 27.703 27.703h109.098c15.275 0 27.703-12.428 27.703-27.703v-47.049h91.496c4.142 0 7.5-3.358 7.5-7.5v-60.215c7.975-.35 14.619-6.166 15.942-14.111l4.386-26.317c1.403-.537 2.798-1.118 4.179-1.74l21.718 15.513c6.761 4.829 15.933 4.071 21.809-1.805l9.539-9.539c5.876-5.875 6.635-15.048 1.805-21.809l-15.513-21.718c.623-1.381 1.203-2.775 1.74-4.179l26.316-4.386c7.945-1.323 13.762-7.967 14.112-15.942h52.715v84h-47.048c-15.274 0-27.7 12.426-27.7 27.7v47.3c0 4.142 3.358 7.5 7.5 7.5s7.5-3.358 7.5-7.5v-47.3c0-7.003 5.697-12.7 12.7-12.7h109.1c7.003 0 12.7 5.697 12.7 12.7v109.1c0 7.003-5.697 12.7-12.7 12.7h-109.1c-7.003 0-12.7-5.697-12.7-12.7v-26.8c0-4.142-3.358-7.5-7.5-7.5s-7.5 3.358-7.5 7.5v26.8c0 15.274 12.426 27.7 27.7 27.7h109.1c15.274 0 27.7-12.426 27.7-27.7v-109.1c0-15.274-12.426-27.7-27.7-27.7h-47.052v-91.5c0-4.142-3.358-7.5-7.5-7.5h-60.215c-.35-7.975-6.166-14.619-14.111-15.942l-26.317-4.386c-.537-1.404-1.117-2.797-1.74-4.179l15.513-21.718c4.83-6.761 4.071-15.934-1.805-21.809l-9.539-9.539c-5.875-5.875-15.048-6.635-21.809-1.805l-21.718 15.513c-1.381-.622-2.775-1.203-4.179-1.74l-4.386-26.316c-1.323-7.945-7.967-13.762-15.942-14.112v-52.715h84v47.048c0 15.274 12.426 27.7 27.7 27.7zm-225.696 319.797c0 7.004-5.699 12.703-12.703 12.703h-109.098c-7.004 0-12.703-5.699-12.703-12.703v-109.098c0-7.004 5.699-12.703 12.703-12.703h109.098c7.004 0 12.703 5.699 12.703 12.703zm115.142-325.253 5.117 30.702c.465 2.789 2.458 5.08 5.157 5.924 3.505 1.098 6.984 2.545 10.341 4.303 2.506 1.312 5.537 1.103 7.838-.542l25.345-18.104c.77-.55 1.814-.463 2.484.206l9.539 9.539c.669.669.756 1.714.206 2.484l-18.104 25.345c-1.644 2.302-1.854 5.332-.542 7.838 1.757 3.356 3.205 6.836 4.303 10.342.845 2.698 3.136 4.691 5.924 5.156l30.702 5.117c.933.156 1.61.956 1.61 1.902v13.489c0 .946-.677 1.746-1.611 1.902l-30.702 5.117c-2.789.465-5.079 2.458-5.924 5.156-1.098 3.506-2.546 6.985-4.303 10.342-1.312 2.506-1.103 5.536.542 7.838l18.104 25.345c.55.77.463 1.814-.206 2.484l-9.539 9.539c-.669.668-1.714.755-2.484.206l-25.345-18.104c-2.302-1.644-5.333-1.853-7.838-.542-3.357 1.757-6.836 3.205-10.341 4.303-2.698.845-4.692 3.135-5.157 5.924l-5.117 30.703c-.156.933-.956 1.61-1.902 1.61h-13.489c-.946 0-1.746-.677-1.902-1.611l-5.117-30.702c-.465-2.789-2.458-5.08-5.157-5.924-3.505-1.098-6.984-2.545-10.341-4.303-1.094-.573-2.288-.855-3.478-.855-1.535 0-3.063.471-4.36 1.397l-25.345 18.104c-.77.549-1.814.464-2.484-.206l-9.539-9.539c-.669-.669-.756-1.714-.206-2.484l18.104-25.345c1.644-2.302 1.854-5.332.542-7.838-1.757-3.357-3.205-6.836-4.303-10.341-.845-2.698-3.135-4.692-5.924-5.157l-30.703-5.117c-.933-.156-1.61-.956-1.61-1.902v-13.489c0-.946.677-1.746 1.611-1.902l30.702-5.117c2.789-.465 5.08-2.458 5.924-5.157 1.098-3.505 2.545-6.984 4.303-10.341 1.312-2.506 1.103-5.536-.542-7.838l-18.104-25.345c-.55-.77-.463-1.814.206-2.484l9.539-9.539c.668-.669 1.713-.756 2.484-.206l25.345 18.104c2.302 1.644 5.333 1.854 7.838.542 3.357-1.757 6.836-3.205 10.341-4.303 2.698-.845 4.692-3.135 5.157-5.924l5.117-30.703c.156-.933.956-1.61 1.902-1.61h13.489c.948 0 1.748.677 1.903 1.611zm210.344-81.083 22.01 22.01v36.829c0 7.003-5.697 12.7-12.7 12.7h-109.1c-.658 0-1.3-.066-1.931-.163l71.376-71.376c4.053-4.053 9.441-6.285 15.172-6.285 5.732 0 11.121 2.232 15.173 6.285zm-79.714-7.831c0-12.018 9.777-21.794 21.794-21.794 9.731 0 18.196 6.589 20.887 15.62-1.372 1.032-2.683 2.164-3.918 3.399l-23.54 23.54c-8.879-2.818-15.223-11.192-15.223-20.765z"/><path d="m37.805 45.305h88.895c4.142 0 7.5-3.358 7.5-7.5s-3.358-7.5-7.5-7.5h-88.895c-4.142 0-7.5 3.358-7.5 7.5s3.358 7.5 7.5 7.5z"/><path d="m37.805 134.199h48.488c4.142 0 7.5-3.358 7.5-7.5s-3.358-7.5-7.5-7.5h-48.488c-4.142 0-7.5 3.358-7.5 7.5s3.358 7.5 7.5 7.5z"/><path d="m37.805 89.752h88.895c4.142 0 7.5-3.358 7.5-7.5s-3.358-7.5-7.5-7.5h-88.895c-4.142 0-7.5 3.358-7.5 7.5s3.358 7.5 7.5 7.5z"/><path d="m120.224 414.479-56.818-32.587c-5.509-3.16-12.082-3.146-17.58.037-5.497 3.185-8.779 8.878-8.779 15.231v65.174c0 6.353 3.282 12.046 8.779 15.23 2.76 1.599 5.791 2.398 8.822 2.398 3.006 0 6.014-.787 8.758-2.36l56.818-32.587c5.538-3.177 8.844-8.885 8.844-15.269s-3.306-12.091-8.844-15.267zm-7.463 17.526-56.818 32.587c-1.132.647-2.114.275-2.598-.006-.485-.281-1.298-.946-1.298-2.251v-65.174c0-1.305.813-1.971 1.298-2.251.287-.166.748-.365 1.311-.365.389 0 .826.094 1.288.359l56.818 32.587c1.137.652 1.307 1.694 1.307 2.256-.001.564-.171 1.606-1.308 2.258z"/><path d="m454.421 449.951v-57.15h6.642c4.142 0 7.5-3.358 7.5-7.5s-3.358-7.5-7.5-7.5h-14.142c-4.142 0-7.5 3.358-7.5 7.5v37.699c-4.864-3.033-10.601-4.792-16.744-4.792-17.503 0-31.744 14.24-31.744 31.744s14.24 31.744 31.744 31.744c17.504-.001 31.744-14.241 31.744-31.745zm-48.488 0c0-9.232 7.511-16.744 16.744-16.744s16.744 7.511 16.744 16.744-7.511 16.744-16.744 16.744-16.744-7.511-16.744-16.744z"/></g></g></svg>