<?xml version="1.0" encoding="utf-8"?>
<!-- Generator: Adobe Illustrator 28.0.0, SVG Export Plug-In . SVG Version: 6.00 Build 0)  -->
<svg version="1.1" id="Layer_1" xmlns="http://www.w3.org/2000/svg" xmlns:xlink="http://www.w3.org/1999/xlink" x="0px" y="0px"
	 viewBox="0 0 64 64" style="enable-background:new 0 0 64 64;" xml:space="preserve">
<style type="text/css">
	.st0{fill:none;stroke:#231F20;stroke-width:2;stroke-linecap:round;stroke-linejoin:round;stroke-miterlimit:10;}
	.st1{fill:none;stroke:#000000;stroke-width:2;stroke-linecap:round;stroke-linejoin:round;stroke-miterlimit:10;}
</style>
<path class="st0" d="M20.4,59.5c3.4,1.9,7.4,3,11.6,3c4,0,7.8-1,11.1-2.7"/>
<g>
	<path class="st0" d="M9.8,36c2.3,2.3,1.8,6.5,1.8,6.5S7.4,43,5.1,40.7s-1.8-6.5-1.8-6.5S7.5,33.7,9.8,36z"/>
	<path class="st0" d="M17.2,53.8c3.3,0,5.9,3.3,5.9,3.3s-2.6,3.3-5.9,3.3c-3.3,0-5.9-3.3-5.9-3.3S14,53.8,17.2,53.8z"/>
	<path class="st0" d="M18,21.7c0,3.3-3.3,5.9-3.3,5.9s-3.3-2.6-3.3-5.9c0-3.3,3.3-5.9,3.3-5.9S18,18.4,18,21.7z"/>
	<path class="st0" d="M54.2,36.5c-2.3,2.3-1.8,6.5-1.8,6.5s4.2,0.5,6.5-1.8s1.8-6.5,1.8-6.5S56.5,34.2,54.2,36.5z"/>
	<path class="st0" d="M46.8,54.3c-3.3,0-5.9,3.3-5.9,3.3s2.6,3.3,5.9,3.3c3.3,0,5.9-3.3,5.9-3.3S50,54.3,46.8,54.3z"/>
	<path class="st0" d="M46.2,21.7c0,3.3,3.3,5.9,3.3,5.9s3.3-2.6,3.3-5.9c0-3.3-3.3-5.9-3.3-5.9S46.2,18.4,46.2,21.7z"/>
	<path class="st0" d="M49.4,55c3.2-3.3,5.4-7.5,6.3-12.2"/>
	<path class="st0" d="M8.3,42.3c0.8,4.7,2.9,9,6,12.3"/>
	<path class="st0" d="M8.2,34.9c0.5-3.8,1.9-7.2,4-10.2"/>
	<path class="st0" d="M51.9,24.8c2.1,3.1,3.5,6.6,4,10.5"/>
	<g>
		<circle class="st0" cx="32" cy="8.5" r="6.9"/>
		<path class="st0" d="M36.2,21.1h-8.3c-1.6,0-2.9-1.3-2.9-2.9v0c0-1.6,1.3-2.9,2.9-2.9h8.3c1.6,0,2.9,1.3,2.9,2.9v0
			C39.1,19.9,37.8,21.1,36.2,21.1z"/>
		<path class="st0" d="M25.9,34.3c1.7-3,1.9-10.1,1.9-13.2"/>
		<path class="st0" d="M36.3,21.1c0,3,0.2,10.2,1.9,13.2"/>
		<path class="st0" d="M43.4,39.8l-0.7-2.9c-0.3-1.5-1.7-2.5-3.2-2.5h-1.4H25.9h-1.4c-1.5,0-2.8,1.1-3.2,2.5l-0.7,2.9"/>
		<path class="st0" d="M43.8,46H20.2c-1.7,0-3.1-1.4-3.1-3.1v0c0-1.7,1.4-3.1,3.1-3.1h23.6c1.7,0,3.1,1.4,3.1,3.1v0
			C46.9,44.6,45.5,46,43.8,46z"/>
	</g>
</g>
</svg>
