<?xml version="1.0" encoding="UTF-8"?>
<svg id="OUTLINE" xmlns="http://www.w3.org/2000/svg" version="1.1" viewBox="0 0 48 48">
  <path d="M24,25c-2.20557,0-4,1.79443-4,4,0,.93018.31641,1.80566.90039,2.51709l-.88672,5.31836c-.04834.29004.0332.58643.22314.81104.18994.22412.46924.35352.76318.35352h6c.29395,0,.57324-.12939.76318-.35352.18994-.22461.27148-.521.22314-.81104l-.88672-5.31836c.58398-.71143.90039-1.58691.90039-2.51709,0-2.20557-1.79443-4-4-4ZM25.0459,31.35938l.77344,4.64062h-3.63867l.77344-4.64062c.05518-.33203-.06006-.66943-.30664-.89795-.41748-.38721-.64746-.90576-.64746-1.46143,0-1.10303.89697-2,2-2s2,.89697,2,2c0,.55566-.22998,1.07422-.64746,1.46143-.24658.22852-.36182.56592-.30664.89795Z" fill="#000" stroke-width="0"/>
  <circle cx="13" cy="24" r="1" fill="#000" stroke-width="0"/>
  <circle cx="13" cy="38" r="1" fill="#000" stroke-width="0"/>
  <circle cx="35" cy="38" r="1" fill="#000" stroke-width="0"/>
  <circle cx="35" cy="24" r="1" fill="#000" stroke-width="0"/>
  <path d="M42,28h-3v-6c0-1.65002-1.34998-3-3-3h-1v-3c0-2.94-1.14001-5.70001-3.21997-7.78003-1.02002-1.01001-2.17999-1.79999-3.47003-2.33997-.51001-.22003-1.09998.01996-1.31.52997-.21997.51001.02002,1.10004.53003,1.31,1.04999.44,2,1.09003,2.82996,1.92004,1.70001,1.69995,2.64001,3.95996,2.64001,6.35999v3h-2v-3c0-3.85999-3.14001-7-7-7s-7,3.14001-7,7v3h-2v-3c0-3.60999,2.15002-6.85999,5.47003-8.28003.51001-.21997.75-.81.52997-1.31-.21997-.51001-.81-.75-1.31-.52997-4.07001,1.73999-6.69,5.70996-6.69,10.12v3h-1c-1.64996,0-3,1.34998-3,3v6h-3c-.54999,0-1,.45001-1,1v4c0,.54999.45001,1,1,1h3v6c0,1.64996,1.35004,3,3,3h24c1.65002,0,3-1.35004,3-3v-6h3c.54999,0,1-.45001,1-1v-4c0-.54999-.45001-1-1-1ZM19,16c0-2.76001,2.23999-5,5-5s5,2.23999,5,5v3h-10v-3ZM7,32v-2h5v2h-5ZM37,40c0,.54999-.45001,1-1,1H12c-.54999,0-1-.45001-1-1v-6h2c.54999,0,1-.45001,1-1v-4c0-.54999-.45001-1-1-1h-2v-6c0-.54999.45001-1,1-1h24c.54999,0,1,.45001,1,1v6h-2c-.54999,0-1,.45001-1,1v4c0,.54999.45001,1,1,1h2v6ZM41,32h-5v-2h5v2Z" fill="#000" stroke-width="0"/>
  <circle cx="24" cy="6" r="1" fill="#000" stroke-width="0"/>
</svg>