<?xml version="1.0" encoding="utf-8"?>
<!-- Generator: Adobe Illustrator 16.0.0, SVG Export Plug-In . SVG Version: 6.00 Build 0)  -->
<!DOCTYPE svg PUBLIC "-//W3C//DTD SVG 1.1//EN" "http://www.w3.org/Graphics/SVG/1.1/DTD/svg11.dtd">
<svg version="1.1" id="Layer_1" xmlns="http://www.w3.org/2000/svg" xmlns:xlink="http://www.w3.org/1999/xlink" x="0px" y="0px"
	 width="32px" height="32px" viewBox="0 0 32 32" enable-background="new 0 0 32 32" xml:space="preserve">
<g id="social_media_1_">
	<g id="XMLID_325_">
		<path id="XMLID_6613_" fill="none" stroke="#263238" stroke-linecap="round" stroke-linejoin="round" stroke-miterlimit="10" d="
			M28.871,12.536C28.093,11.889,27.092,11.5,26,11.5c-2.114,0-3.875,1.463-4.357,3.429L19.5,16l2.143,1.071
			C22.125,19.037,23.886,20.5,26,20.5c0.409,0,0.806-0.055,1.183-0.156"/>
		<path id="XMLID_6611_" fill="none" stroke="#263238" stroke-linecap="round" stroke-linejoin="round" stroke-miterlimit="10" d="
			M19.541,30.052C18.037,29.324,17,27.783,17,26c0-1.763,1.023-3.273,2.5-4.012L18.5,19l2.692,2.531
			c0.104-0.008,0.202-0.031,0.308-0.031c1.196,0,2.283,0.466,3.089,1.226"/>
		<path id="XMLID_6610_" fill="none" stroke="#263238" stroke-linecap="round" stroke-linejoin="round" stroke-miterlimit="10" d="
			M25.5,24.5h-2c-1.104,0-2,0.896-2,2v4"/>
		
			<line id="XMLID_6609_" fill="none" stroke="#263238" stroke-linecap="round" stroke-linejoin="round" stroke-miterlimit="10" x1="20.5" y1="27.5" x2="23.5" y2="27.5"/>
		<path id="XMLID_6605_" fill="none" stroke="#263238" stroke-linecap="round" stroke-linejoin="round" stroke-miterlimit="10" d="
			M19.541,1.948C18.037,2.676,17,4.217,17,6c0,1.763,1.023,3.273,2.5,4.012L18.5,13l2.692-2.531
			c0.104,0.008,0.202,0.031,0.308,0.031c1.196,0,2.283-0.466,3.089-1.226"/>
		<path id="XMLID_6604_" fill="none" stroke="#263238" stroke-linecap="round" stroke-linejoin="round" stroke-miterlimit="10" d="
			M25.5,7.5h-2c-1.104,0-2-0.896-2-2v-4"/>
		
			<line id="XMLID_6603_" fill="none" stroke="#263238" stroke-linecap="round" stroke-linejoin="round" stroke-miterlimit="10" x1="20.5" y1="4.5" x2="23.5" y2="4.5"/>
		
			<line id="XMLID_6600_" fill="none" stroke="#263238" stroke-linecap="round" stroke-linejoin="round" stroke-miterlimit="10" x1="25.5" y1="13.5" x2="25.5" y2="13.5"/>
		
			<line id="XMLID_6598_" fill="none" stroke="#263238" stroke-linecap="round" stroke-linejoin="round" stroke-miterlimit="10" x1="25.5" y1="18.5" x2="25.5" y2="14.5"/>
		
			<line id="XMLID_6596_" fill="none" stroke="#263238" stroke-linecap="round" stroke-linejoin="round" stroke-miterlimit="10" x1="27.5" y1="14.5" x2="27.5" y2="17.5"/>
		<path id="XMLID_6594_" fill="none" stroke="#263238" stroke-linecap="round" stroke-linejoin="round" stroke-miterlimit="10" d="
			M27.5,18.5V16c0-0.828,0.672-1.5,1.5-1.5s1.5,0.672,1.5,1.5v2.5"/>
		<path id="XMLID_335_" fill="none" stroke="#263238" stroke-linecap="round" stroke-linejoin="round" stroke-miterlimit="10" d="
			M14.5,14.05c1.141,0.232,2,1.241,2,2.45c0,1.207-0.857,2.216-1.996,2.449"/>
		<path id="XMLID_339_" fill="none" stroke="#263238" stroke-linecap="round" stroke-linejoin="round" stroke-miterlimit="10" d="
			M6.269,19.501l0.398,4.271c0.047,0.219-0.093,0.432-0.312,0.475l-1.227,0.246c-0.219,0.043-0.443-0.096-0.5-0.312l-0.707-4.6"/>
		
			<line id="XMLID_334_" fill="none" stroke="#263238" stroke-linecap="round" stroke-linejoin="round" stroke-miterlimit="10" x1="7.502" y1="13.5" x2="7.502" y2="19.5"/>
		
			<line id="XMLID_333_" fill="none" stroke="#263238" stroke-linecap="round" stroke-linejoin="round" stroke-miterlimit="10" x1="14.502" y1="9.5" x2="14.502" y2="23.5"/>
		<path id="XMLID_6621_" fill="none" stroke="#263238" stroke-linecap="round" stroke-linejoin="round" stroke-miterlimit="10" d="
			M12.684,11.327C11.75,12.334,10.708,13.5,7.5,13.5"/>
		<path id="XMLID_6619_" fill="none" stroke="#263238" stroke-linecap="round" stroke-linejoin="round" stroke-miterlimit="10" d="
			M14.5,23c0,0-1.792-3.5-7-3.5H3c-0.807,0-1.5-0.688-1.5-1.5v-3.001c0-0.815,0.693-1.499,1.515-1.499H5.5"/>
	</g>
</g>
</svg>
